<svg width="144" height="32" viewBox="0 0 144 32" fill="none" xmlns="http://www.w3.org/2000/svg">
  <!-- "Pragmatiks" in PP Supply Mono, converted to paths -->
  <g transform="translate(0, 24) scale(0.024, -0.024)"><path d="M520 460V520C520 620 440 700 340 700H80V0H180V280H340C440 280 520 360 520 460ZM180 380V600H340C385 600 420 565 420 520V460C420 415 385 380 340 380Z" fill="#EDEDED"/></g>
  <g transform="translate(14.4, 24) scale(0.024, -0.024)"><path d="M80 510V0H180V309L330 410H340C384 410 420 374 420 330V290H520V330C520 430 439 510 340 510H299L180 430V510Z" fill="#EDEDED"/></g>
  <g transform="translate(28.8, 24) scale(0.024, -0.024)"><path d="M520 510H420V454L337 510H260C161 510 80 430 80 330V180C80 81 161 0 260 0H337L420 56V0H520ZM180 180V330C180 374 216 410 260 410H306L420 333V177L306 100H260C216 100 180 136 180 180Z" fill="#EDEDED"/></g>
  <g transform="translate(43.2, 24) scale(0.024, -0.024)"><path d="M520 -29V510H420V454L337 510H260C161 510 80 430 80 330V180C80 81 161 0 260 0H337L420 56V-29C420 -73 384 -109 340 -109H260C216 -109 180 -73 180 -29H80C80 -128 161 -210 260 -210H340C440 -210 520 -128 520 -29ZM180 180V330C180 374 216 410 260 410H306L420 333V177L306 100H260C216 100 180 136 180 180Z" fill="#EDEDED"/></g>
  <g transform="translate(57.6, 24) scale(0.024, -0.024)"><path d="M60 510V0H160V312L248 396C250 385 250 369 250 350V0H350V312L438 396C440 385 440 369 440 350V0H540V350C540 460 497 510 418 510H410L337 439C318 487 281 510 228 510H220L160 452V510ZM217 426H223ZM407 426H413Z" fill="#EDEDED"/></g>
  <g transform="translate(72.0, 24) scale(0.024, -0.024)"><path d="M520 510H420V454L337 510H260C161 510 80 430 80 330V180C80 81 161 0 260 0H337L420 56V0H520ZM180 180V330C180 374 216 410 260 410H306L420 333V177L306 100H260C216 100 180 136 180 180Z" fill="#EDEDED"/></g>
  <g transform="translate(86.4, 24) scale(0.024, -0.024)"><path d="M415 0H520V100H415C370 100 335 135 335 180V410H520V510H335V640H235V510H80V410H235V180C235 80 315 0 415 0Z" fill="#EDEDED"/></g>
  <g transform="translate(100.8, 24) scale(0.024, -0.024)"><path d="M345 100V510H80V410H245V100H80V0H520V100ZM235 600H345V700H235Z" fill="#EDEDED"/></g>
  <g transform="translate(115.2, 24) scale(0.024, -0.024)"><path d="M180 0V205H273L402 0H520L360 255L520 510H402L273 305H180V710H80V0Z" fill="#EDEDED"/></g>
  <g transform="translate(129.6, 24) scale(0.024, -0.024)"><path d="M80 168V148C80 63 152 0 249 0H350C451 0 520 57 520 141C520 345 187 294 187 375C187 396 205 410 247 410H343C378 410 403 389 403 361V352H503V361C503 445 433 510 343 510H247C152 510 87 456 87 375C87 181 420 254 420 141C420 116 397 100 350 100H249C206 100 180 120 180 148V168Z" fill="#EDEDED"/></g>
</svg>
